<svg version="1.1" id="Uploaded to svgrepo.com" xmlns="http://www.w3.org/2000/svg" xmlns:xlink="http://www.w3.org/1999/xlink" x="0px" y="0px"
	 width="32px" height="32px" viewBox="0 0 32 32" style="enable-background:new 0 0 32 32;" xml:space="preserve">
<style type="text/css">
	.feather_een{fill:#0B1719;}
</style>
<path class="feather_een" d="M19,0h-6c-1.657,0-3,1.343-3,3v20.667c0,0.216,0.07,0.427,0.2,0.6l5,6.667c0.4,0.533,1.2,0.533,1.6,0
	l5-6.667c0.13-0.173,0.2-0.384,0.2-0.6V3C22,1.343,20.657,0,19,0z M16,30.333L15,29h2L16,30.333z M17.75,28h-3.5l-3-4h9.5L17.75,28z
	 M21,23H11V11h10V23z M21,10H11V7h10V10z M21,6H11V3c0-1.103,0.897-2,2-2h6c1.103,0,2,0.897,2,2V6z"/>
</svg>