<svg version="1.1" id="Uploaded to svgrepo.com" xmlns="http://www.w3.org/2000/svg" xmlns:xlink="http://www.w3.org/1999/xlink" x="0px" y="0px"
	 width="32px" height="32px" viewBox="0 0 32 32" style="enable-background:new 0 0 32 32;" xml:space="preserve">
<style type="text/css">
	.feather_een{fill:#111918;}
	.st0{fill:#0B1719;}
</style>
<path class="feather_een" d="M20,26.5v-16c0-0.276,0.224-0.5,0.5-0.5s0.5,0.224,0.5,0.5v16c0,0.276-0.224,0.5-0.5,0.5
	S20,26.776,20,26.5z M28,5v1c0,0.552-0.448,1-1,1l-1.847,22.166C25.066,30.203,24.2,31,23.16,31H8.84
	c-1.04,0-1.907-0.797-1.993-1.834L5,7C4.448,7,4,6.552,4,6V5c0-1.105,0.895-2,2-2h7V2c0-0.552,0.448-1,1-1h4c0.552,0,1,0.448,1,1v1
	h7C27.105,3,28,3.895,28,5z M14,3h4V2h-4V3z M25.997,7H6.003l1.84,22.083C7.887,29.601,8.32,30,8.84,30H23.16
	c0.52,0,0.953-0.399,0.997-0.917L25.997,7z M27,5c0-0.552-0.448-1-1-1H6C5.448,4,5,4.448,5,5v1h22V5z M17.5,27
	c0.276,0,0.5-0.224,0.5-0.5v-16c0-0.276-0.224-0.5-0.5-0.5S17,10.224,17,10.5v16C17,26.776,17.224,27,17.5,27z M14.5,27
	c0.276,0,0.5-0.224,0.5-0.5v-16c0-0.276-0.224-0.5-0.5-0.5S14,10.224,14,10.5v16C14,26.776,14.224,27,14.5,27z M11.5,27
	c0.276,0,0.5-0.224,0.5-0.5v-16c0-0.276-0.224-0.5-0.5-0.5S11,10.224,11,10.5v16C11,26.776,11.224,27,11.5,27z"/>
</svg>